<?xml version="1.0" encoding="utf-8"?>
<!-- Designed by Vexels.com - 2016 All Rights Reserved - https://vexels.com/terms-and-conditions/  -->

<svg version="1.1" id="Layer_1" xmlns="http://www.w3.org/2000/svg" xmlns:xlink="http://www.w3.org/1999/xlink" x="0px" y="0px"
	 width="1200px" height="1200px" viewBox="0 0 1200 1200" enable-background="new 0 0 1200 1200" xml:space="preserve">
<path fill="#575756" d="M793.486,166.266v-84.57C793.486,64.069,779.264,50,761.81,50H438.288
	c-17.568,0-31.794,14.069-31.794,31.696v84.57H226.608v121.611h42.171h4.46c-1.614,6.574-2.46,13.474-2.46,20.564v747.149
	c0,52.205,43.859,94.411,98.123,94.411h462.256c54.204,0,98.182-42.206,98.182-94.411V308.441c0-7.089-1-13.99-2.614-20.564h2.614
	h44.053V166.266H793.486z M440.67,1004.81c0,20.662-14.147,37.246-31.716,37.246c-17.529,0-31.598-16.584-31.598-37.246V372.659
	c0-20.509,14.069-37.156,31.598-37.156c17.568,0,31.716,16.647,31.716,37.156V1004.81z M568.142,1004.81
	c0,20.662-14.301,37.246-31.83,37.246s-31.755-16.584-31.755-37.246V372.659c0-20.509,14.226-37.156,31.755-37.156
	s31.83,16.647,31.83,37.156V1004.81z M695.383,1004.81c0,20.662-14.147,37.246-31.676,37.246c-17.607,0-31.676-16.584-31.676-37.246
	V372.659c0-20.509,14.069-37.156,31.676-37.156c17.529,0,31.676,16.647,31.676,37.156V1004.81z M729.98,166.266H470v-52.878h259.98
	V166.266z M822.776,1004.81c0,20.662-14.222,37.246-31.83,37.246c-17.297,0-31.598-16.584-31.598-37.246V372.659
	c0-20.509,14.301-37.156,31.598-37.156c17.608,0,31.83,16.647,31.83,37.156V1004.81z"/>
</svg>
